<?xml version="1.0" encoding="utf-8"?>
<!-- Generator: Adobe Illustrator 22.1.0, SVG Export Plug-In . SVG Version: 6.00 Build 0)  -->
<svg version="1.1" id="Layer_1" xmlns="http://www.w3.org/2000/svg" xmlns:xlink="http://www.w3.org/1999/xlink" x="0px" y="0px"
	 viewBox="0 0 40 40" style="enable-background:new 0 0 40 40;" xml:space="preserve">
<style type="text/css">
	.st0{fill:#CD6326;}
	.st1{fill:#134731;}
</style>
<path class="st0" d="M0,20C0,9,9,0,20,0s20,9,20,20c0,11-9,20-20,20S0,31,0,20z"/>
<path class="st1" d="M21.7,16.7h5v5h-5v11.7h-5V21.7h-5v-5h5v-2.1c0-2,0.6-4.5,1.9-5.9c1.2-1.4,2.8-2.1,4.6-2.1h3.5v5h-3.5
	c-0.8,0-1.5,0.7-1.5,1.5L21.7,16.7L21.7,16.7z"/>
</svg>
