<?xml version="1.0" encoding="utf-8"?>
<!-- Generator: Adobe Illustrator 22.1.0, SVG Export Plug-In . SVG Version: 6.00 Build 0)  -->
<svg version="1.1" id="Layer_1" xmlns="http://www.w3.org/2000/svg" xmlns:xlink="http://www.w3.org/1999/xlink" x="0px" y="0px"
	 viewBox="0 0 40 40" style="enable-background:new 0 0 40 40;" xml:space="preserve">
<style type="text/css">
	.st0{fill:#CD6326;}
	.st1{fill:#134731;}
</style>
<path class="st0" d="M0,20C0,9,9,0,20,0s20,9,20,20c0,11-9,20-20,20S0,31,0,20z"/>
<path class="st1" d="M20.8,8c-7,0-10.6,5.1-10.6,9.3c0,2.6,1,4.8,3,5.7c0.3,0.1,0.6,0,0.7-0.4c0.1-0.3,0.2-0.9,0.3-1.2
	c0.1-0.4,0.1-0.5-0.2-0.8c-0.6-0.7-1-1.6-1-2.9c0-3.7,2.8-7.1,7.3-7.1c4,0,6.2,2.4,6.2,5.7c0,4.3-1.9,7.9-4.7,7.9
	c-1.6,0-2.7-1.3-2.3-2.9c0.4-1.9,1.3-3.9,1.3-5.3c0-1.2-0.7-2.2-2-2.2c-1.6,0-2.9,1.6-2.9,3.8c0,1.4,0.5,2.3,0.5,2.3
	s-1.6,6.9-1.9,8.1c-0.6,2.4-0.1,5.3,0,5.6c0,0.2,0.2,0.2,0.4,0.1c0.1-0.2,2-2.5,2.7-4.9c0.2-0.7,1-4.1,1-4.1c0.5,1,2,1.8,3.6,1.8
	c4.8,0,8-4.3,8-10.2C30.2,12.1,26.5,8,20.8,8L20.8,8z"/>
</svg>
