<?xml version="1.0" encoding="utf-8"?>
<!-- Generator: Adobe Illustrator 22.1.0, SVG Export Plug-In . SVG Version: 6.00 Build 0)  -->
<svg version="1.1" id="Layer_1" xmlns="http://www.w3.org/2000/svg" xmlns:xlink="http://www.w3.org/1999/xlink" x="0px" y="0px"
	 viewBox="0 0 32 32" style="enable-background:new 0 0 32 32;" xml:space="preserve">
<style type="text/css">
	.st0{fill:#CD6326;}
</style>
<path class="st0" d="M12.7,18.7c3.3,0,6-2.7,6-6s-2.7-6-6-6s-6,2.7-6,6S9.4,18.7,12.7,18.7z M20.7,18.7l6.6,6.6l-2,2l-6.6-6.6v-1.1
	l-0.4-0.4c-1.5,1.3-3.5,2.1-5.6,2.1c-4.8,0-8.7-3.8-8.7-8.6S7.9,4,12.7,4s8.6,3.9,8.6,8.7c0,2.1-0.8,4.1-2.1,5.6l0.4,0.4H20.7z"/>
</svg>
